<mxfile host="Electron" modified="2023-05-13T16:30:55.315Z" agent="Mozilla/5.0 (X11; Linux x86_64) AppleWebKit/537.36 (KHTML, like Gecko) draw.io/21.2.8 Chrome/112.0.5615.165 Electron/24.2.0 Safari/537.36" etag="MJ1CyR4IpBH0PyepCtQf" version="21.2.8" type="device">
  <diagram name="Page-1" id="Jlen2AejlkNZrziuebYp">
    <mxGraphModel dx="989" dy="1644" grid="1" gridSize="10" guides="1" tooltips="1" connect="1" arrows="1" fold="1" page="1" pageScale="1" pageWidth="850" pageHeight="1100" math="0" shadow="0">
      <root>
        <mxCell id="0" />
        <mxCell id="1" parent="0" />
        <mxCell id="a0i9qQwFWnWkkheEn6QK-2" value="" style="rounded=0;whiteSpace=wrap;html=1;fillColor=#bac8d3;strokeColor=#23445d;" vertex="1" parent="1">
          <mxGeometry x="160" y="150" width="520" height="350" as="geometry" />
        </mxCell>
        <mxCell id="a0i9qQwFWnWkkheEn6QK-3" value="Tytuł projektu" style="rounded=0;whiteSpace=wrap;html=1;align=left;" vertex="1" parent="1">
          <mxGeometry x="200" y="150" width="180" height="40" as="geometry" />
        </mxCell>
        <mxCell id="a0i9qQwFWnWkkheEn6QK-4" value="Logo" style="rounded=0;whiteSpace=wrap;html=1;" vertex="1" parent="1">
          <mxGeometry x="160" y="150" width="40" height="40" as="geometry" />
        </mxCell>
        <mxCell id="a0i9qQwFWnWkkheEn6QK-5" value="Miejsce (Filtry, Linki, Karta np sezon i najbliższy wyścig)" style="rounded=0;whiteSpace=wrap;html=1;align=left;" vertex="1" parent="1">
          <mxGeometry x="380" y="150" width="300" height="40" as="geometry" />
        </mxCell>
        <mxCell id="a0i9qQwFWnWkkheEn6QK-6" value="Nawigacja:&lt;br&gt;&lt;br&gt;&lt;div style=&quot;text-align: left;&quot;&gt;&lt;span style=&quot;font-size: 8px; background-color: initial;&quot;&gt;- główne info o torach&lt;/span&gt;&lt;/div&gt;&lt;font style=&quot;font-size: 8px;&quot;&gt;&lt;div style=&quot;text-align: left;&quot;&gt;&lt;span style=&quot;background-color: initial;&quot;&gt;- statyski z sezonów&lt;/span&gt;&lt;/div&gt;&lt;div style=&quot;text-align: left;&quot;&gt;&lt;span style=&quot;background-color: initial;&quot;&gt;- statystyki teamy&amp;nbsp;&lt;/span&gt;&lt;/div&gt;&lt;/font&gt;" style="rounded=0;whiteSpace=wrap;html=1;" vertex="1" parent="1">
          <mxGeometry x="160" y="190" width="90" height="310" as="geometry" />
        </mxCell>
        <mxCell id="a0i9qQwFWnWkkheEn6QK-7" value="" style="rounded=0;whiteSpace=wrap;html=1;fillColor=#bac8d3;strokeColor=#23445d;" vertex="1" parent="1">
          <mxGeometry x="755" y="-70" width="520" height="350" as="geometry" />
        </mxCell>
        <mxCell id="a0i9qQwFWnWkkheEn6QK-8" value="Tytuł projektu" style="rounded=0;whiteSpace=wrap;html=1;align=left;" vertex="1" parent="1">
          <mxGeometry x="795" y="-70" width="180" height="40" as="geometry" />
        </mxCell>
        <mxCell id="a0i9qQwFWnWkkheEn6QK-9" value="Logo" style="rounded=0;whiteSpace=wrap;html=1;" vertex="1" parent="1">
          <mxGeometry x="755" y="-70" width="40" height="40" as="geometry" />
        </mxCell>
        <mxCell id="a0i9qQwFWnWkkheEn6QK-10" value="Miejsce (Filtry, Linki, Karta np sezon i najbliższy wyścig)" style="rounded=0;whiteSpace=wrap;html=1;align=left;" vertex="1" parent="1">
          <mxGeometry x="975" y="-70" width="300" height="40" as="geometry" />
        </mxCell>
        <mxCell id="a0i9qQwFWnWkkheEn6QK-11" value="Nawigacja:&lt;br&gt;&lt;br&gt;&lt;div style=&quot;text-align: left;&quot;&gt;&lt;span style=&quot;font-size: 8px; background-color: initial;&quot;&gt;- główne info o torach&lt;/span&gt;&lt;/div&gt;&lt;font style=&quot;font-size: 8px;&quot;&gt;&lt;div style=&quot;text-align: left;&quot;&gt;&lt;br&gt;&lt;/div&gt;&lt;/font&gt;" style="rounded=0;whiteSpace=wrap;html=1;" vertex="1" parent="1">
          <mxGeometry x="755" y="-30" width="90" height="310" as="geometry" />
        </mxCell>
        <mxCell id="a0i9qQwFWnWkkheEn6QK-12" value="Mapa świata z torami i gradientem ilości&lt;br&gt;tooltip: nazwa, ilość wyścigów, kraj, moze flaga" style="whiteSpace=wrap;html=1;aspect=fixed;" vertex="1" parent="1">
          <mxGeometry x="890" y="70" width="180" height="180" as="geometry" />
        </mxCell>
        <mxCell id="a0i9qQwFWnWkkheEn6QK-14" value="Ile okrążeń" style="rounded=0;whiteSpace=wrap;html=1;" vertex="1" parent="1">
          <mxGeometry x="1100" y="-10" width="120" height="60" as="geometry" />
        </mxCell>
        <mxCell id="a0i9qQwFWnWkkheEn6QK-15" value="Najszybsze okrązenie" style="rounded=0;whiteSpace=wrap;html=1;" vertex="1" parent="1">
          <mxGeometry x="1100" y="60" width="120" height="60" as="geometry" />
        </mxCell>
        <mxCell id="a0i9qQwFWnWkkheEn6QK-16" value="Jaki % kierowców kończy wyścig&amp;nbsp;" style="rounded=0;whiteSpace=wrap;html=1;" vertex="1" parent="1">
          <mxGeometry x="1100" y="130" width="120" height="60" as="geometry" />
        </mxCell>
        <mxCell id="a0i9qQwFWnWkkheEn6QK-17" value="&lt;font style=&quot;font-size: 8px;&quot;&gt;Filtr do nazwy toru&lt;br&gt;Filtr sezonu (pokazuje z danego sezonu)&lt;/font&gt;" style="rounded=0;whiteSpace=wrap;html=1;" vertex="1" parent="1">
          <mxGeometry x="855" y="-20" width="175" height="60" as="geometry" />
        </mxCell>
        <mxCell id="a0i9qQwFWnWkkheEn6QK-19" value="" style="rounded=0;whiteSpace=wrap;html=1;fillColor=#bac8d3;strokeColor=#23445d;" vertex="1" parent="1">
          <mxGeometry x="755" y="300" width="520" height="350" as="geometry" />
        </mxCell>
        <mxCell id="a0i9qQwFWnWkkheEn6QK-20" value="Tytuł projektu" style="rounded=0;whiteSpace=wrap;html=1;align=left;" vertex="1" parent="1">
          <mxGeometry x="795" y="300" width="180" height="40" as="geometry" />
        </mxCell>
        <mxCell id="a0i9qQwFWnWkkheEn6QK-21" value="Logo" style="rounded=0;whiteSpace=wrap;html=1;" vertex="1" parent="1">
          <mxGeometry x="755" y="300" width="40" height="40" as="geometry" />
        </mxCell>
        <mxCell id="a0i9qQwFWnWkkheEn6QK-22" value="Miejsce (Filtry, Linki, Karta np sezon i najbliższy wyścig)" style="rounded=0;whiteSpace=wrap;html=1;align=left;" vertex="1" parent="1">
          <mxGeometry x="975" y="300" width="300" height="40" as="geometry" />
        </mxCell>
        <mxCell id="a0i9qQwFWnWkkheEn6QK-23" value="Nawigacja:&lt;br&gt;&lt;br&gt;&lt;div style=&quot;text-align: left;&quot;&gt;&lt;span style=&quot;background-color: initial; font-size: 8px;&quot;&gt;- statyski z sezonów&lt;/span&gt;&lt;br&gt;&lt;/div&gt;&lt;font style=&quot;font-size: 8px;&quot;&gt;&lt;div style=&quot;text-align: left;&quot;&gt;&lt;span style=&quot;background-color: initial;&quot;&gt;&amp;nbsp;&lt;/span&gt;&lt;/div&gt;&lt;/font&gt;" style="rounded=0;whiteSpace=wrap;html=1;" vertex="1" parent="1">
          <mxGeometry x="755" y="340" width="90" height="310" as="geometry" />
        </mxCell>
        <mxCell id="a0i9qQwFWnWkkheEn6QK-24" value="&lt;font style=&quot;font-size: 8px;&quot;&gt;Filtr do nazwy toru&lt;br&gt;Filtr sezonu (pokazuje z danego sezonu)&lt;/font&gt;" style="rounded=0;whiteSpace=wrap;html=1;" vertex="1" parent="1">
          <mxGeometry x="855" y="350" width="175" height="60" as="geometry" />
        </mxCell>
        <mxCell id="a0i9qQwFWnWkkheEn6QK-25" value="Hitmap:&lt;br&gt;Kierowca do pozycji&lt;br&gt;tooltip ilość okrążeń&lt;br&gt;filtrami zmieniamy sezon i wyścig" style="rounded=0;whiteSpace=wrap;html=1;" vertex="1" parent="1">
          <mxGeometry x="865" y="450" width="155" height="90" as="geometry" />
        </mxCell>
        <mxCell id="a0i9qQwFWnWkkheEn6QK-26" value="&lt;font style=&quot;font-size: 10px;&quot;&gt;Ilość punktów kierowcy w sezonie np słupkowy&lt;/font&gt;" style="rounded=0;whiteSpace=wrap;html=1;" vertex="1" parent="1">
          <mxGeometry x="1050" y="350" width="190" height="60" as="geometry" />
        </mxCell>
        <mxCell id="a0i9qQwFWnWkkheEn6QK-27" value="&lt;font style=&quot;font-size: 10px;&quot;&gt;Najwięcej wygranych&lt;/font&gt;" style="rounded=0;whiteSpace=wrap;html=1;" vertex="1" parent="1">
          <mxGeometry x="1050" y="420" width="190" height="30" as="geometry" />
        </mxCell>
        <mxCell id="a0i9qQwFWnWkkheEn6QK-28" value="&lt;font style=&quot;font-size: 10px;&quot;&gt;Ilość wyścigów&lt;/font&gt;" style="rounded=0;whiteSpace=wrap;html=1;" vertex="1" parent="1">
          <mxGeometry x="1050" y="460" width="190" height="30" as="geometry" />
        </mxCell>
        <mxCell id="a0i9qQwFWnWkkheEn6QK-29" value="&lt;font style=&quot;font-size: 10px;&quot;&gt;Top pole position&lt;/font&gt;" style="rounded=0;whiteSpace=wrap;html=1;" vertex="1" parent="1">
          <mxGeometry x="1050" y="500" width="190" height="30" as="geometry" />
        </mxCell>
        <mxCell id="a0i9qQwFWnWkkheEn6QK-30" value="&lt;font style=&quot;font-size: 10px;&quot;&gt;Najszybsze okrążenia&lt;/font&gt;" style="rounded=0;whiteSpace=wrap;html=1;" vertex="1" parent="1">
          <mxGeometry x="1050" y="540" width="190" height="30" as="geometry" />
        </mxCell>
        <mxCell id="a0i9qQwFWnWkkheEn6QK-31" value="&lt;font style=&quot;font-size: 10px;&quot;&gt;Najwięcej dyskwalifikacji&lt;/font&gt;" style="rounded=0;whiteSpace=wrap;html=1;" vertex="1" parent="1">
          <mxGeometry x="1050" y="580" width="190" height="30" as="geometry" />
        </mxCell>
      </root>
    </mxGraphModel>
  </diagram>
</mxfile>
